{
  "accessors": [
    {
      "bufferView": 1,
      "componentType": 5126,
      "count": 4479,
      "max": [
        1.207300066947937,
        0.51122123003005981,
        2.6504409313201904
      ],
      "min": [
        -1.1853311061859131,
        -2.2215807437896729,
        1.2647693157196045
      ],
      "type": "VEC3"
    },
    {
      "bufferView": 1,
      "byteOffset": 53748,
      "componentType": 5126,
      "count": 4479,
      "max": [
        0.99839717149734497,
        1,
        1
      ],
      "min": [
        -0.9983971118927002,
        -1,
        -0.99208545684814453
      ],
      "type": "VEC3"
    },
    {
      "bufferView": 2,
      "componentType": 5126,
      "count": 4479,
      "max": [
        1,
        0.99967467784881592,
        1,
        1
      ],
      "min": [
        -0.99996405839920044,
        -0.99999195337295532,
        -1,
        -1
      ],
      "type": "VEC4"
    },
    {
      "bufferView": 0,
      "componentType": 5125,
      "count": 23616,
      "max": [
        4478
      ],
      "min": [
        0
      ],
      "type": "SCALAR"
    },
    {
      "bufferView": 1,
      "byteOffset": 107496,
      "componentType": 5126,
      "count": 1606,
      "max": [
        0.89391094446182251,
        0.55165010690689087,
        2.5076413154602051
      ],
      "min": [
        -0.89769363403320312,
        0.084789559245109558,
        2.0345501899719238
      ],
      "type": "VEC3"
    },
    {
      "bufferView": 1,
      "byteOffset": 126768,
      "componentType": 5126,
      "count": 1606,
      "max": [
        0.98554873466491699,
        0.99942457675933838,
        0.99950510263442993
      ],
      "min": [
        -0.98986351490020752,
        -0.99520009756088257,
        -0.99999141693115234
      ],
      "type": "VEC3"
    },
    {
      "bufferView": 2,
      "byteOffset": 71664,
      "componentType": 5126,
      "count": 1606,
      "max": [
        0.9176364541053772,
        1,
        0.99997043609619141,
        1
      ],
      "min": [
        -0.88920789957046509,
        -0.99999326467514038,
        -0.99981874227523804,
        -1
      ],
      "type": "VEC4"
    },
    {
      "bufferView": 0,
      "byteOffset": 94464,
      "componentType": 5125,
      "count": 8256,
      "max": [
        1605
      ],
      "min": [
        0
      ],
      "type": "SCALAR"
    },
    {
      "bufferView": 1,
      "byteOffset": 146040,
      "componentType": 5126,
      "count": 6175,
      "max": [
        1.3965991735458374,
        1.026400089263916,
        2.3248982429504395
      ],
      "min": [
        -1.378166675567627,
        -0.013279763050377369,
        1.2101011276245117
      ],
      "type": "VEC3"
    },
    {
      "bufferView": 1,
      "byteOffset": 220140,
      "componentType": 5126,
      "count": 6175,
      "max": [
        0.9987410306930542,
        0.9988599419593811,
        0.9992334246635437
      ],
      "min": [
        -0.99937498569488525,
        -0.99963569641113281,
        -0.99905651807785034
      ],
      "type": "VEC3"
    },
    {
      "bufferView": 2,
      "byteOffset": 97360,
      "componentType": 5126,
      "count": 6175,
      "max": [
        0.99975532293319702,
        0.99999803304672241,
        0.99938488006591797,
        1
      ],
      "min": [
        -0.99917203187942505,
        -0.99961471557617188,
        -0.999977707862854,
        -1
      ],
      "type": "VEC4"
    },
    {
      "bufferView": 0,
      "byteOffset": 127488,
      "componentType": 5125,
      "count": 31104,
      "max": [
        6174
      ],
      "min": [
        0
      ],
      "type": "SCALAR"
    },
    {
      "bufferView": 1,
      "byteOffset": 294240,
      "componentType": 5126,
      "count": 2677,
      "max": [
        1.5430796146392822,
        1.1113420724868774,
        2.4894173145294189
      ],
      "min": [
        -1.5426582098007202,
        -0.25403168797492981,
        1.0889308452606201
      ],
      "type": "VEC3"
    },
    {
      "bufferView": 1,
      "byteOffset": 326364,
      "componentType": 5126,
      "count": 2677,
      "max": [
        0.99960899353027344,
        0.99981260299682617,
        0.99995166063308716
      ],
      "min": [
        -0.99835234880447388,
        -0.99980288743972778,
        -0.99929773807525635
      ],
      "type": "VEC3"
    },
    {
      "bufferView": 2,
      "byteOffset": 196160,
      "componentType": 5126,
      "count": 2677,
      "max": [
        0.99943292140960693,
        0.99995166063308716,
        0.99999868869781494,
        1
      ],
      "min": [
        -0.99883937835693359,
        -0.99929767847061157,
        -0.99998652935028076,
        -1
      ],
      "type": "VEC4"
    },
    {
      "bufferView": 0,
      "byteOffset": 251904,
      "componentType": 5125,
      "count": 13056,
      "max": [
        2676
      ],
      "min": [
        0
      ],
      "type": "SCALAR"
    },
    {
      "bufferView": 1,
      "byteOffset": 358488,
      "componentType": 5126,
      "count": 9208,
      "max": [
        1.7187099456787109,
        1.5397394895553589,
        2.4398579597473145
      ],
      "min": [
        -1.7171672582626343,
        -0.70784735679626465,
        0.65815591812133789
      ],
      "type": "VEC3"
    },
    {
      "bufferView": 1,
      "byteOffset": 468984,
      "componentType": 5126,
      "count": 9208,
      "max": [
        0.99963361024856567,
        0.99981743097305298,
        0.9993024468421936
      ],
      "min": [
        -0.99963366985321045,
        -0.99999368190765381,
        -0.99957185983657837
      ],
      "type": "VEC3"
    },
    {
      "bufferView": 2,
      "byteOffset": 238992,
      "componentType": 5126,
      "count": 9208,
      "max": [
        0.99999988079071045,
        0.99998641014099121,
        0.99999231100082397,
        1
      ],
      "min": [
        -0.99958860874176025,
        -0.99957185983657837,
        -0.99987965822219849,
        -1
      ],
      "type": "VEC4"
    },
    {
      "bufferView": 0,
      "byteOffset": 304128,
      "componentType": 5125,
      "count": 44928,
      "max": [
        9207
      ],
      "min": [
        0
      ],
      "type": "SCALAR"
    },
    {
      "bufferView": 1,
      "byteOffset": 579480,
      "componentType": 5126,
      "count": 3432,
      "max": [
        1.7356733083724976,
        1.7606682777404785,
        2.3499560356140137
      ],
      "min": [
        -1.73681640625,
        -1.1166272163391113,
        0.35558533668518066
      ],
      "type": "VEC3"
    },
    {
      "bufferView": 1,
      "byteOffset": 620664,
      "componentType": 5126,
      "count": 3432,
      "max": [
        0.99939596652984619,
        0.9981113076210022,
        0.99928611516952515
      ],
      "min": [
        -0.99938452243804932,
        -0.99963486194610596,
        -0.99929338693618774
      ],
      "type": "VEC3"
    },
    {
      "bufferView": 2,
      "byteOffset": 386320,
      "componentType": 5126,
      "count": 3432,
      "max": [
        0.99950248003005981,
        0.99985200166702271,
        0.99961996078491211,
        1
      ],
      "min": [
        -0.89219623804092407,
        -0.99929338693618774,
        -0.99943667650222778,
        -1
      ],
      "type": "VEC4"
    },
    {
      "bufferView": 0,
      "byteOffset": 483840,
      "componentType": 5125,
      "count": 17472,
      "max": [
        3431
      ],
      "min": [
        0
      ],
      "type": "SCALAR"
    },
    {
      "bufferView": 1,
      "byteOffset": 661848,
      "componentType": 5126,
      "count": 8396,
      "max": [
        1.8961030244827271,
        2.8267712593078613,
        2.4049570560455322
      ],
      "min": [
        -1.8805549144744873,
        -1.8296926021575928,
        -2.6762337684631348
      ],
      "type": "VEC3"
    },
    {
      "bufferView": 1,
      "byteOffset": 762600,
      "componentType": 5126,
      "count": 8396,
      "max": [
        0.99999368190765381,
        1,
        1
      ],
      "min": [
        -0.99999374151229858,
        -1,
        -1
      ],
      "type": "VEC3"
    },
    {
      "bufferView": 2,
      "byteOffset": 441232,
      "componentType": 5126,
      "count": 8396,
      "max": [
        1,
        1,
        1,
        1
      ],
      "min": [
        -0.999489426612854,
        -1,
        -1,
        -1
      ],
      "type": "VEC4"
    },
    {
      "bufferView": 0,
      "byteOffset": 553728,
      "componentType": 5125,
      "count": 43968,
      "max": [
        8395
      ],
      "min": [
        0
      ],
      "type": "SCALAR"
    },
    {
      "bufferView": 1,
      "byteOffset": 863352,
      "componentType": 5126,
      "count": 51,
      "max": [
        1.250214695930481,
        0.99685537815093994,
        2.2385842800140381
      ],
      "min": [
        -1.2520474195480347,
        0.31322929263114929,
        1.3083484172821045
      ],
      "type": "VEC3"
    },
    {
      "bufferView": 1,
      "byteOffset": 863964,
      "componentType": 5126,
      "count": 51,
      "max": [
        0.86049538850784302,
        -0.011455760337412357,
        0.99733847379684448
      ],
      "min": [
        -0.86049538850784302,
        -0.073018200695514679,
        0.50932955741882324
      ],
      "type": "VEC3"
    },
    {
      "bufferView": 2,
      "byteOffset": 575568,
      "componentType": 5126,
      "count": 51,
      "max": [
        0.020027771592140198,
        0.99990218877792358,
        0.10924212634563446,
        1
      ],
      "min": [
        -0.020027890801429749,
        0.9939495325088501,
        -0.0093982499092817307,
        1
      ],
      "type": "VEC4"
    },
    {
      "bufferView": 0,
      "byteOffset": 729600,
      "componentType": 5125,
      "count": 192,
      "max": [
        50
      ],
      "min": [
        0
      ],
      "type": "SCALAR"
    }
  ],
  "asset": {
    "extras": {
      "author": "xuxav (https://sketchfab.com/xuxav)",
      "license": "CC-BY-4.0 (http://creativecommons.org/licenses/by/4.0/)",
      "source": "https://sketchfab.com/models/14c0ed3f9a0f46bdb375a7cbca431396",
      "title": "Kylo_Ren_helmet"
    },
    "generator": "Sketchfab-3.26.2",
    "version": "2.0"
  },
  "bufferViews": [
    {
      "buffer": 0,
      "byteLength": 730368,
      "byteOffset": 0,
      "name": "floatBufferViews",
      "target": 34963
    },
    {
      "buffer": 0,
      "byteLength": 864576,
      "byteOffset": 730368,
      "byteStride": 12,
      "name": "floatBufferViews",
      "target": 34962
    },
    {
      "buffer": 0,
      "byteLength": 576384,
      "byteOffset": 1594944,
      "byteStride": 16,
      "name": "floatBufferViews",
      "target": 34962
    }
  ],
  "buffers": [
    {
      "byteLength": 2171328,
      "uri": "scene.bin"
    }
  ],
  "materials": [
    {
      "doubleSided": true,
      "emissiveFactor": [
        0,
        0,
        0
      ],
      "name": "VRayMtl4",
      "pbrMetallicRoughness": {
        "baseColorFactor": [
          0,
          0,
          0,
          1
        ],
        "metallicFactor": 0,
        "roughnessFactor": 0
      }
    },
    {
      "doubleSided": true,
      "emissiveFactor": [
        0,
        0,
        0
      ],
      "name": "VRayMtl2",
      "pbrMetallicRoughness": {
        "baseColorFactor": [
          0.5,
          0.5,
          0.5,
          1
        ],
        "metallicFactor": 1,
        "roughnessFactor": 0.2177972561
      }
    },
    {
      "doubleSided": true,
      "emissiveFactor": [
        0,
        0,
        0
      ],
      "name": "VRayMtl5",
      "pbrMetallicRoughness": {
        "baseColorFactor": [
          0,
          0,
          0,
          1
        ],
        "metallicFactor": 0.26391006099999997,
        "roughnessFactor": 0
      }
    },
    {
      "doubleSided": true,
      "emissiveFactor": [
        0,
        0,
        0
      ],
      "name": "VRayMtl1",
      "pbrMetallicRoughness": {
        "baseColorFactor": [
          0,
          0,
          0,
          1
        ],
        "metallicFactor": 0,
        "roughnessFactor": 0
      }
    }
  ],
  "meshes": [
    {
      "name": "pPlane14_VRayMtl4_0",
      "primitives": [
        {
          "attributes": {
            "NORMAL": 1,
            "POSITION": 0,
            "TANGENT": 2
          },
          "indices": 3,
          "material": 0,
          "mode": 4
        }
      ]
    },
    {
      "name": "pPlane15_VRayMtl2_0",
      "primitives": [
        {
          "attributes": {
            "NORMAL": 5,
            "POSITION": 4,
            "TANGENT": 6
          },
          "indices": 7,
          "material": 1,
          "mode": 4
        }
      ]
    },
    {
      "name": "polySurface2_VRayMtl2_0",
      "primitives": [
        {
          "attributes": {
            "NORMAL": 9,
            "POSITION": 8,
            "TANGENT": 10
          },
          "indices": 11,
          "material": 1,
          "mode": 4
        }
      ]
    },
    {
      "name": "pPlane16_VRayMtl2_0",
      "primitives": [
        {
          "attributes": {
            "NORMAL": 13,
            "POSITION": 12,
            "TANGENT": 14
          },
          "indices": 15,
          "material": 1,
          "mode": 4
        }
      ]
    },
    {
      "name": "pPlane17_VRayMtl2_0",
      "primitives": [
        {
          "attributes": {
            "NORMAL": 17,
            "POSITION": 16,
            "TANGENT": 18
          },
          "indices": 19,
          "material": 1,
          "mode": 4
        }
      ]
    },
    {
      "name": "pPlane18_VRayMtl2_0",
      "primitives": [
        {
          "attributes": {
            "NORMAL": 21,
            "POSITION": 20,
            "TANGENT": 22
          },
          "indices": 23,
          "material": 1,
          "mode": 4
        }
      ]
    },
    {
      "name": "polySurface1_VRayMtl5_0",
      "primitives": [
        {
          "attributes": {
            "NORMAL": 25,
            "POSITION": 24,
            "TANGENT": 26
          },
          "indices": 27,
          "material": 2,
          "mode": 4
        }
      ]
    },
    {
      "name": "pPlane21_VRayMtl1_0",
      "primitives": [
        {
          "attributes": {
            "NORMAL": 29,
            "POSITION": 28,
            "TANGENT": 30
          },
          "indices": 31,
          "material": 3,
          "mode": 4
        }
      ]
    }
  ],
  "nodes": [
    {
      "children": [
        1
      ],
      "name": "RootNode (gltf orientation matrix)",
      "rotation": [
        -0.70710678118654746,
        -0,
        -0,
        0.70710678118654757
      ]
    },
    {
      "children": [
        2
      ],
      "name": "RootNode (model correction matrix)"
    },
    {
      "children": [
        3
      ],
      "matrix": [
        1,
        0,
        0,
        0,
        0,
        0,
        1,
        0,
        0,
        -1,
        0,
        0,
        0,
        0,
        0,
        1
      ],
      "name": "545b6a8eb18345499f67f2788051b931.fbx"
    },
    {
      "children": [
        4,
        6,
        8,
        10,
        12,
        14,
        16,
        18
      ],
      "name": "RootNode"
    },
    {
      "children": [
        5
      ],
      "name": "pPlane14"
    },
    {
      "mesh": 0,
      "name": "pPlane14_VRayMtl4_0"
    },
    {
      "children": [
        7
      ],
      "matrix": [
        1,
        0,
        0,
        0,
        0,
        1,
        0,
        0,
        0,
        0,
        1,
        0,
        0,
        0,
        -0.086298197507858276,
        1
      ],
      "name": "pPlane15"
    },
    {
      "mesh": 1,
      "name": "pPlane15_VRayMtl2_0"
    },
    {
      "children": [
        9
      ],
      "name": "polySurface2"
    },
    {
      "mesh": 2,
      "name": "polySurface2_VRayMtl2_0"
    },
    {
      "children": [
        11
      ],
      "matrix": [
        0.9778023362159729,
        0,
        0,
        0,
        0,
        1,
        0,
        0,
        0,
        0,
        1,
        0,
        8.0097554018720984e-05,
        0,
        -0.087692126631736755,
        1
      ],
      "name": "pPlane16"
    },
    {
      "mesh": 3,
      "name": "pPlane16_VRayMtl2_0"
    },
    {
      "children": [
        13
      ],
      "matrix": [
        0.96677029132843018,
        0,
        0,
        0,
        0,
        1,
        0,
        0,
        0,
        0,
        1,
        0,
        2.5636492864578031e-05,
        0,
        -0.08832850307226181,
        1
      ],
      "name": "pPlane17"
    },
    {
      "mesh": 4,
      "name": "pPlane17_VRayMtl2_0"
    },
    {
      "children": [
        15
      ],
      "matrix": [
        0.95508450269699097,
        0,
        0,
        0,
        0,
        1,
        0,
        0,
        0,
        0,
        1,
        0,
        -2.5059287509066053e-05,
        0,
        -0.098304040729999542,
        1
      ],
      "name": "pPlane18"
    },
    {
      "mesh": 5,
      "name": "pPlane18_VRayMtl2_0"
    },
    {
      "children": [
        17
      ],
      "name": "polySurface1"
    },
    {
      "mesh": 6,
      "name": "polySurface1_VRayMtl5_0"
    },
    {
      "children": [
        19
      ],
      "name": "pPlane21"
    },
    {
      "mesh": 7,
      "name": "pPlane21_VRayMtl1_0"
    }
  ],
  "scene": 0,
  "scenes": [
    {
      "name": "OSG_Scene",
      "nodes": [
        0
      ]
    }
  ]
}

